PathFileType	4	(X/Y/Z)	/Users/visionmauri/1_6_1_f_Sports2D/1_6_1_f_Sports2D_px_person00.trc
DataRate	CameraRate	NumFrames	NumMarkers	Units	OrigDataRate	OrigDataStartFrame	OrigNumFrames
30.0	30.0	8	22	m	30.0	0	447
Frame#	Time	Hip			RHip			RKnee			RAnkle			RBigToe			RSmallToe			RHeel			LHip			LKnee			LAnkle			LBigToe			LSmallToe			LHeel			Neck			Head			Nose			RShoulder			RElbow			RWrist			LShoulder			LElbow			LWrist			
		X1	Y1	Z1	X2	Y2	Z2	X3	Y3	Z3	X4	Y4	Z4	X5	Y5	Z5	X6	Y6	Z6	X7	Y7	Z7	X8	Y8	Z8	X9	Y9	Z9	X10	Y10	Z10	X11	Y11	Z11	X12	Y12	Z12	X13	Y13	Z13	X14	Y14	Z14	X15	Y15	Z15	X16	Y16	Z16	X17	Y17	Z17	X18	Y18	Z18	X19	Y19	Z19	X20	Y20	Z20	X21	Y21	Z21	X22	Y22	Z22
0	0.0	601.899784393846	894.7611332059818	0.0	689.6181039822058	950.1617714997271	0.0	648.0672864691735	1305.651452112143	0.0	606.5165909227188	1674.9918720260507	0.0	569.5826292221951	1730.3936240724922	0.0	638.8333503896426	1739.6267945216914	0.0	606.5164846488781	1739.626441585049	0.0	509.56471364807135	931.6947418507618	0.0	491.09788877831005	1236.4039116591334	0.0	463.3977114903897	1564.1899819955322	0.0	468.0145654027885	1725.7810178686527	0.0	417.22906913734414	1711.9302980958905	0.0	463.3964261154627	1633.4425098115762	0.0	629.6002653376355	336.13383642726495	0.0	634.2174397051449	220.71497400903777	0.0	643.4506222451614	317.6670665062717	0.0	809.6536507855504	428.46896314057983	0.0	874.288358339255	705.4746831119855	0.0	860.437591735496	885.5273428985414	0.0	454.16388816745746	405.3846508837738	0.0	361.82929376604426	663.9223621293397	0.0	352.59421013301846	677.7751289299565	0.0
1	0.03340807174887892	601.0737683301389	893.7620860405959	0.0	688.9808811858829	949.3873765175906	0.0	647.0174915645907	1305.4091745571054	0.0	606.13120645208	1673.3460353077814	0.0	567.7955692754282	1727.14239971047	0.0	640.2587918117626	1737.620981873029	0.0	605.7178942674119	1740.0709223027588	0.0	506.9959932093091	932.3397605172443	0.0	489.99650455562096	1239.9669789876395	0.0	462.1691150580111	1560.9512459339292	0.0	468.630205610904	1724.160196822147	0.0	413.78322745692395	1710.5803722838484	0.0	462.4054383852901	1632.0914444176763	0.0	629.0541998671285	336.1634886532814	0.0	633.6208002842369	221.76243841363623	0.0	643.173425738512	319.18335681043834	0.0	809.2880718159614	428.40277874643704	0.0	872.4423988062989	704.6004672105502	0.0	860.022719848304	884.6750429154737	0.0	453.75202080999475	401.6915442189022	0.0	357.40294670534445	666.271213934356	0.0	353.0472197968425	676.512955832981	0.0
2	0.06681614349775784	599.0795386889012	890.733939167512	0.0	686.6346794994611	947.7557446541857	0.0	645.419479348986	1305.35969189143	0.0	606.1151784872603	1670.957017307821	0.0	568.4138982355307	1721.5671404159627	0.0	643.2577950447164	1734.529552315114	0.0	604.8116737378499	1740.266911633657	0.0	503.0880374149074	931.2223332950686	0.0	487.78318128337463	1242.9514396900518	0.0	461.4962754888502	1557.800608555358	0.0	468.9544336426263	1721.7063328484955	0.0	409.0704201481898	1709.3097944271135	0.0	461.24934379087955	1631.3513174954717	0.0	627.9730873323515	335.7999197219391	0.0	631.4964325710458	222.0559375507184	0.0	642.4619667533166	319.3329876812689	0.0	808.4774408308064	428.78761763094485	0.0	871.0697214980374	702.5014193497907	0.0	859.1800965561313	882.6979674814052	0.0	453.5355149419125	395.9503903706159	0.0	352.40999749106976	666.2464874783996	0.0	353.145047241979	677.3420476095836	0.0
3	0.10022421524663677	596.0856507442079	886.2961135471359	0.0	682.836814925835	945.4605629382088	0.0	643.9428272698127	1305.4672253187134	0.0	605.9920559137009	1668.7748108630012	0.0	571.1561245446915	1715.548807222792	0.0	646.3294559722841	1732.0576325731186	0.0	604.1055978088012	1739.4873161568748	0.0	498.8010343381386	928.2277444398258	0.0	485.108420430488	1242.4375086067587	0.0	462.12924906080224	1556.1474487826465	0.0	468.56362840594994	1718.5238326032054	0.0	405.6842400282469	1707.5558976523498	0.0	460.3905499467685	1631.7069894999668	0.0	626.1948591777847	334.5602250958288	0.0	627.6048302513283	221.5777083031056	0.0	640.1947397600849	317.30133232352773	0.0	807.0718323733918	429.36865775080065	0.0	870.7130194307842	699.0251909208555	0.0	858.1207736504953	880.0035661734805	0.0	452.65876007346816	390.2088798456836	0.0	349.0879921772593	661.2378901159558	0.0	352.6809835497188	680.4679408093755	0.0
4	0.1336322869955157	593.0454688368692	882.7636830580881	0.0	679.7966102241068	943.0117162487463	0.0	642.9396274090051	1305.680836832173	0.0	605.2055502137899	1667.9576170677524	0.0	573.0870238281021	1712.3592801380862	0.0	647.2201548558436	1731.679791629469	0.0	603.7963895473096	1737.3980618707778	0.0	495.56518350013874	924.817851666447	0.0	483.147026712536	1237.4699753772663	0.0	463.1383473510011	1556.4617330502222	0.0	467.34567155136045	1713.1251503434073	0.0	405.6952912096745	1702.5866345670454	0.0	460.213386812378	1633.0978547474647	0.0	623.9486167728277	332.14014845381223	0.0	622.7695652805113	221.08955404350021	0.0	635.0423642939936	314.2740981279258	0.0	805.261110944624	428.447084560476	0.0	871.1162394425131	695.245581294866	0.0	857.4999761263839	878.2749866735372	0.0	450.50375353128624	386.88283594180865	0.0	349.3733679593532	651.4484371220833	0.0	351.9748613344237	683.2137404776678	0.0
5	0.1670403587443946	590.9867202489031	880.8554572166918	0.0	679.1567662582604	940.0957827002478	0.0	641.8857551068659	1306.2255776724448	0.0	604.2430783321461	1668.3621246579812	0.0	572.6641214610542	1712.2300123666005	0.0	646.1590898794954	1732.1982097760722	0.0	603.7173960953136	1735.1248222188829	0.0	493.5262819267896	921.5175441155553	0.0	481.60143904141665	1231.3804104723429	0.0	461.9935553936862	1557.5594507703718	0.0	465.8629082686223	1704.3427828962347	0.0	407.0303529276166	1693.5700651217148	0.0	459.99842818864425	1634.9325662316057	0.0	621.3926010685119	329.4355552339321	0.0	617.693838121161	221.17831648551348	0.0	627.5087501750551	312.78631265347644	0.0	803.1766526818232	425.02673659083155	0.0	871.4406298684835	692.6894316473876	0.0	857.3744568919903	878.2134041675487	0.0	448.3689188255605	385.337935576763	0.0	351.8762480813064	642.7021966229252	0.0	351.61298529161223	684.0224078505541	0.0
6	0.20044843049327354	590.7445742975215	879.727761898702	0.0	679.8899565593026	936.8460640267024	0.0	640.9238825704007	1306.9245383942064	0.0	603.7591836832371	1669.0264020375623	0.0	571.6910704577699	1713.0437914365816	0.0	644.5264843374277	1732.2224530540677	0.0	603.7320772466928	1733.791540402911	0.0	492.1978675463341	917.9876736490618	0.0	479.67468894500934	1227.2844348545418	0.0	458.1011046946584	1557.2933885798993	0.0	465.0873288943637	1695.6316657489915	0.0	407.50167428132806	1684.7753514010128	0.0	458.51830452617423	1635.145688555995	0.0	618.1905158505613	328.11737770351516	0.0	612.5458706980215	222.03377086563665	0.0	620.0125855454195	314.16136592855105	0.0	800.547119368188	421.48907925654106	0.0	871.1507924505888	692.2673041201571	0.0	857.0253333261587	878.339499206078	0.0	447.2294142709728	384.1142066581517	0.0	353.5769070809415	640.579142531326	0.0	351.63170899992986	684.035834417049	0.0
7	0.23385650224215246	591.92422117836	879.269884942936	0.0	680.0229849904209	934.5380796230731	0.0	640.7332166524029	1306.9057909653022	0.0	603.6463872042984	1669.4652701979685	0.0	572.0931691589219	1713.5647499073839	0.0	643.0750977921527	1731.716902005501	0.0	603.9779361487016	1732.9869859254356	0.0	491.29735792189484	914.9974537928854	0.0	477.83858129997606	1223.6265541939997	0.0	453.96742144424024	1552.667766642352	0.0	465.27079969718915	1689.1859616667296	0.0	407.5149565388079	1678.1400124433708	0.0	456.18495711553135	1630.522707635829	0.0	614.0516341385436	328.3776792938622	0.0	607.3483157598948	223.36382705506395	0.0	613.7905745604769	317.2823034690049	0.0	797.2920728470112	420.48041443536425	0.0	870.3224501541139	693.4185636085638	0.0	856.2094207803998	877.4180670484998	0.0	445.6616925101957	383.26011514598724	0.0	353.3149736483505	642.6406469588018	0.0	350.84480977883493	683.0806963891476	0.0
